# AST/ASF file generated using VICON BodyLanguage
# -----------------------------------------------
:version 1.10
:name VICON
:units
  mass 1.0
  length 0.45
  angle deg
:documentation
   .ast/.asf automatically generated from VICON data using
   VICON BodyBuilder and BodyLanguage model FoxedUp or BRILLIANT.MOD
:root
   order TX TY TZ RX RY RZ
   axis XYZ
   position 0 0 0  
   orientation 0 0 0 
:bonedata
  begin
     id 1 
     name lhipjoint
     direction 0.714689 -0.624256 0.315473 
     length 2.45343 
     axis 0 0 0  XYZ
  end
  begin
     id 2 
     name lfemur
     direction 0.34202 -0.939693 0  
     length 6.59069  
     axis 0 0 20  XYZ
    dof rx ry rz
    limits (-160.0 20.0)
           (-70.0 70.0)
           (-60.0 70.0)
  end
  begin
     id 3 
     name ltibia
     direction 0.34202 -0.939693 0   
     length 6.73476   
     axis 0 0 20   XYZ
    dof rx
    limits (-10.0 170.0)
  end
  begin
     id 4 
     name lfoot
     direction 0.0718085 -0.197292 0.977711   
     length 1.52607   
     axis -90 7.62852e-016 20   XYZ
    dof rx rz
    limits (-45.0 90.0)
           (-70.0 20.0)
  end
  begin
     id 5 
     name ltoes
     direction 1.53553e-011 -4.22024e-011 1   
     length 0.777832   
     axis -90 7.62852e-016 20   XYZ
    dof rx
    limits (-90.0 20.0)
  end
  begin
     id 6 
     name rhipjoint
     direction -0.727419 -0.612432 0.309497   
     length 2.50079  
     axis 0 0 0  XYZ 
  end
  begin
     id 7 
     name rfemur
     direction -0.34202 -0.939693 0   
     length 6.51665   
     axis 0 0 -20   XYZ
    dof rx ry rz
    limits (-160.0 20.0)
           (-70.0 70.0)
           (-70.0 60.0)
  end
  begin
     id 8 
     name rtibia
     direction -0.34202 -0.939693 0   
     length 6.48919   
     axis 0 0 -20   XYZ
    dof rx
    limits (-10.0 170.0)
 end
 begin
     id 9 
     name rfoot
     direction -0.112205 -0.308282 0.944655   
     length 1.68717  
     axis -90 -7.62852e-016 -20   XYZ
    dof rx rz
    limits (-45.0 90.0)
           (-20.0 70.0)
  end
  begin
     id 10 
     name rtoes
     direction -1.53583e-011 -4.21993e-011 1   
     length 0.846859   
     axis -90 -7.62852e-016 -20   XYZ
    dof rx
    limits (-90.0 20.0)
  end
  begin
     id 11 
     name lowerback
     direction -0.00119603 0.996364 -0.0851956   
     length 1.67242   
     axis 0 0 0   XYZ
    dof rx ry rz
    limits (-20.0 45.0)
           (-30.0 30.0)
           (-30.0 30.0)
  end
  begin
     id 12 
     name upperback
     direction -0.00531001 0.998318 0.0577248   
     length 1.64819   
     axis 0 0 0   XYZ
    dof rx ry rz
    limits (-20.0 45.0)
           (-30.0 30.0)
           (-30.0 30.0)
  end
  begin
     id 13 
     name thorax
     direction -0.00653676 0.995132 0.0983291   
     length 1.67429   
     axis 0 0 0   XYZ
    dof rx ry rz
    limits (-20.0 45.0)
           (-30.0 30.0)
           (-30.0 30.0)
  end
  begin
     id 14 
     name lowerneck
     direction 0.0141424 0.999886 0.00525412   
     length 1.59623   
     axis 0 0 0   XYZ
    dof rx ry rz
    limits (-20.0 45.0)
           (-30.0 30.0)
           (-30.0 30.0)
  end
  begin
     id 15 
     name upperneck
     direction -0.0640064 0.987178 -0.146232   
     length 1.59576   
     axis 0 0 0   XYZ
    dof rx ry rz
    limits (-20.0 45.0)
           (-30.0 30.0)
           (-30.0 30.0)
  end
  begin
     id 16
     name head
     direction -0.0222942 0.998496 -0.0500859  
     length 1.60959  
     axis 0 0 0   XYZ
    dof rx ry rz
    limits (-20.0 45.0)
           (-30.0 30.0)
           (-30.0 30.0)
  end
  begin
     id 17 
     name lclavicle
     direction 0.908549 0.392612 0.142806  
     length 2.80649  
     axis 0 0 0   XYZ
    dof ry rz
    limits (-20.0 10.0)
           (0.0 20.0)
  end
  begin
     id 18 
     name lhumerus
     direction 1 -4.48968e-011 1.08832e-028   
     length 4.2884   
     axis -180 -30 -90   XYZ
    dof rx ry rz
    limits (-60.0 90.0)
           (-90.0 90.0)
           (-90.0 90.0)
  end
  begin
     id 19
     name lradius
     direction 1 -4.48952e-011 -3.02642e-028   
     length 3.06552   
     axis -180 -30 -90   XYZ
    dof rx
    limits (-10.0 170.0)
  end
  begin
     id 20
     name lwrist
     direction 1 -4.49014e-011 1.58672e-027   
     length 1.53276   
     axis -1.65735e-015 90 90   XYZ
    dof ry
    limits (-180.0 0.0)
 end
  begin
     id 21 
     name lhand
     direction 1 -4.48928e-011 3.17344e-027   
     length 0.753045   
     axis -2.02492e-015 90 90   XYZ
    dof rx rz
    limits (-90.0 90.0)
           (-45.0 45.0)
  end
  begin
     id 22 
     name lfingers
     direction 1 -4.48958e-011 6.34687e-027   
     length 0.607124   
     axis -4.04985e-015 90 90   XYZ
    dof rx
    limits (0.0 90.0)
  end
  begin
     id 23
     name lthumb
     direction 0.707107 -6.34905e-011 0.707107   
     length 0.871712   
     axis -90 45 2.85299e-015   XYZ
    dof rx rz
    limits (-45.0 45.0)
           (-45.0 45.0)
  end
  begin
     id 24 
     name rclavicle
     direction -0.885098 0.45949 0.0739604   
     length 2.9478  
     axis 0 0 0   XYZ 
    dof ry rz
    limits (-10.0 20.0)
           (-20.0 0.0)
  end
  begin
     id 25 
     name rhumerus
     direction -1 -4.4898e-011 -2.61739e-027  
     length 4.52172   
     axis -180 30 90   XYZ
    dof rx ry rz
    limits (-90.0 60.0)
           (-90.0 90.0)
           (-90.0 90.0)
  end
  begin
     id 26 
     name rradius
     direction -1 -4.48945e-011 9.02552e-028   
     length 2.8914   
     axis -180 30 90   XYZ
    dof rx
    limits (-10.0 170.0)
  end
  begin
     id 27 
     name rwrist
     direction -1 -4.49018e-011 1.58672e-027   
     length 1.4457   
     axis -1.65735e-015 -90 -90   XYZ
    dof ry
    limits (-180.0 0.0)
  end
  begin
     id 28
     name rhand
     direction -1 -4.48825e-011 3.17344e-027   
     length 0.680541   
     axis -2.02492e-015 -90 -90   XYZ
    dof rx rz
    limits (-90.0 90.0)
           (-45.0 45.0)
  end
  begin
     id 29
     name rfingers
     direction -1 -4.49067e-011 6.34687e-027   
     length 0.54867   
     axis -4.04985e-015 -90 -90   XYZ
    dof rx
    limits (0.0 90.0)
  end
  begin
     id 30
     name rthumb
     direction -0.707107 -6.34833e-011 0.707107   
     length 0.787783   
     axis -90 -45 -2.85299e-015   XYZ
    dof rx rz
    limits (-45.0 45.0)
           (-45.0 45.0)
  end
:hierarchy
  begin
    root lhipjoint rhipjoint lowerback
    lhipjoint lfemur
    lfemur ltibia
    ltibia lfoot
    lfoot ltoes
    rhipjoint rfemur
    rfemur rtibia
    rtibia rfoot
    rfoot rtoes
    lowerback upperback
    upperback thorax
    thorax lowerneck lclavicle rclavicle
    lowerneck upperneck
    upperneck head
    lclavicle lhumerus
    lhumerus lradius
    lradius lwrist
    lwrist lhand lthumb
    lhand lfingers
    rclavicle rhumerus
    rhumerus rradius
    rradius rwrist
    rwrist rhand rthumb
    rhand rfingers
  end

#!OML:ASF E:\emotionWalksFemale\Project 1\Capture day 1\Session 1\Female1.ASF
:FULLY-SPECIFIED
:DEGREES
84
root 7.30218 15.0807 38.059 181.348 -3.15956 -181.359
lowerback 7.18023 0.522012 -2.70797
upperback -4.3856 0.328336 0.0778187
thorax -8.69497 0.288553 1.56163
lowerneck -5.73049 -3.36874 -7.13188
upperneck 7.72345 -4.7453 8.27763
head 3.59977 -2.25769 3.44641
rclavicle -4.22417e-016 -6.11263e-015
rhumerus -46.5402 3.06918 -83.7943
rradius 35.516
rwrist 11.795
rhand -2.49021 -52.5541
rfingers 7.12502
rthumb 23.2031 -81.1765
lclavicle -4.22417e-016 -6.11263e-015
lhumerus -47.8524 -8.99268 91.9295
lradius 35.7706
lwrist -14.6314
lhand -4.98564 -34.6199
lfingers 7.12502
lthumb 20.8072 -5.71556
rfemur -27.7545 19.5446 15.8851
rtibia 23.9473
rfoot -14.9804 -35.4534
rtoes -4.75639
lfemur 20.132 -15.4946 -32.1537
ltibia 9.22361e-014
lfoot -16.0633 12.9401
ltoes -33.5409
85
root 7.32342 15.088 37.9623 181.404 -3.59629 -181.752
lowerback 7.19402 0.444038 -3.14664
upperback -4.4062 0.159118 -0.0692949
thorax -8.72115 0.226111 1.67717
lowerneck -5.76371 -3.40693 -7.11744
upperneck 7.62702 -4.79534 8.34441
head 3.58163 -2.27859 3.46145
rclavicle -1.34708e-014 4.96962e-015
rhumerus -46.5886 2.84064 -83.7222
rradius 35.5936
rwrist 11.9235
rhand -2.74821 -52.5057
rfingers 7.12502
rthumb 22.9556 -81.159
lclavicle -1.34708e-014 4.96962e-015
lhumerus -47.9423 -9.16509 91.9566
lradius 35.989
lwrist -14.6362
lhand -6.1184 -34.4278
lfingers 7.12502
lthumb 19.7185 -5.40793
rfemur -27.6015 19.7297 15.4951
rtibia 24.1939
rfoot -15.5641 -35.6805
rtoes -1.61463
lfemur 20.4491 -15.6674 -32.4775
ltibia 0
lfoot -15.5874 12.749
ltoes -35.041
86
root 7.3451 15.101 37.8686 181.713 -3.85578 -181.59
lowerback 6.99738 0.41264 -3.03043
upperback -4.5065 0.12908 -0.0540303
thorax -8.71202 0.203037 1.63288
lowerneck -5.89627 -3.47642 -7.16097
upperneck 7.5686 -4.88237 8.45462
head 3.59691 -2.31495 3.49565
rclavicle -2.15868e-015 -1.31695e-015
rhumerus -46.6558 2.91186 -83.8003
rradius 35.7712
rwrist 11.6169
rhand -2.77875 -52.794
rfingers 7.12502
rthumb 22.9263 -81.4509
lclavicle -2.15868e-015 -1.31695e-015
lhumerus -47.5463 -8.91298 91.6678
lradius 35.8761
lwrist -13.9804
lhand -4.81119 -34.1043
lfingers 7.12502
lthumb 20.9748 -5.21847
rfemur -27.7913 20.2943 15.5101
rtibia 24.369
rfoot -16.4812 -35.8362
rtoes 2.76352
lfemur 20.4501 -15.7332 -32.0922
ltibia 7.31528e-014
lfoot -15.2323 12.4255
ltoes -35.1396
87
root 7.36679 15.1161 37.7691 181.87 -4.01319 -181.432
lowerback 6.87365 0.347721 -2.90716
upperback -4.57628 0.0577615 -0.00374291
thorax -8.71055 0.161457 1.62741
lowerneck -6.0119 -3.48951 -7.14793
upperneck 7.59679 -4.88448 8.37233
head 3.62258 -2.31468 3.46623
rclavicle -2.08103e-015 3.15571e-015
rhumerus -46.7871 3.18082 -83.9219
rradius 36.1112
rwrist 11.8224
rhand -1.2192 -54.201
rfingers 7.12502
rthumb 24.4221 -82.6644
lclavicle -2.08103e-015 3.15571e-015
lhumerus -47.3964 -8.70959 91.5815
lradius 35.7549
lwrist -14.5619
lhand -5.85462 -33.7078
lfingers 7.12502
lthumb 19.9721 -4.71413
rfemur -27.7377 20.59 15.709
rtibia 24.4559
rfoot -17.247 -35.518
rtoes 8.17028
lfemur 20.6301 -15.6639 -31.7555
ltibia 7.63333e-014
lfoot -14.8104 12.061
ltoes -35.2985
88
root 7.38715 15.133 37.6687 181.958 -4.20744 -181.335
lowerback 6.79244 0.293737 -2.78618
upperback -4.61435 -0.00375339 -0.0166471
thorax -8.7001 0.122731 1.55463
lowerneck -6.16942 -3.50946 -7.24068
upperneck 7.70155 -4.91375 8.49808
head 3.68797 -2.32306 3.51588
rclavicle -9.31182e-015 -2.67117e-015
rhumerus -46.8638 3.18782 -83.9878
rradius 35.7046
rwrist 11.0712
rhand -2.73539 -52.8021
rfingers 7.12502
rthumb 22.9679 -81.4539
lclavicle -9.31182e-015 -2.67117e-015
lhumerus -47.311 -8.56966 91.378
lradius 35.8363
lwrist -14.4167
lhand -6.03797 -33.9319
lfingers 7.12502
lthumb 19.7959 -4.92002
rfemur -27.4433 20.2714 16.0632
rtibia 24.3529
rfoot -16.5665 -35.1823
rtoes 8.35325
lfemur 20.9011 -15.6134 -31.5164
ltibia -5.725e-014
lfoot -14.3114 11.7132
ltoes -35.9043
